<svg id="Layer_2" data-name="Layer 2" xmlns="http://www.w3.org/2000/svg" width="480.02" height="385.53" viewBox="0 0 480.02 385.53">
  <defs>
    <style>
      .cls-1 {
        fill: #fff;
      }
    </style>
  </defs>
  <title>Team_Logos_Text_Philadelphia</title>
  <g>
    <path d="M322.69,144h-108v52.58H169.77L214.5,225.4l.32,55.27,31.88-29.46V225.54l63.59.17,27.15-27.15V157.91S338.84,143.7,322.69,144Zm-76,28.66h53.92c1.69.05,7.4.69,7.14,7.13v7l-9.41,9.41-.94.11H246.69Z" transform="translate(-2 -77.24)"/>
    <g>
      <path class="cls-1" d="M207.48,161.21c-8.77-21.65-10.42-39.75-3.85-50.27h0c-8.57-.72-18.31,3.45-18.31,3.45,25.25-21.9,55.26-10.33,55.26-10.33h0c16.13,5.09,35.28,16.59,54.52,32.74h13.17c-43.9-43.48-91.5-68-115.32-56.89s-16.48,54.2,14.56,103.36Z" transform="translate(-2 -77.24)"/>
      <path class="cls-1" d="M387.42,272.77a61.67,61.67,0,0,0-.69-7.41h-.19a129.37,129.37,0,0,0-9-30.41,253.93,253.93,0,0,0-17.4-33.34h0q2.64-3.32,5-6.56a123,123,0,0,0,12.39-21.8c5.19-13.11,4.64-23.94-2.78-30.81-8.71-8.06-25.54-9.45-46.91-5.21A21.38,21.38,0,0,1,335.6,140c15.79-3,32-1.73,38.22,7.55C384.23,163.16,357.21,197,357.21,197q-.71-1.12-1.46-2.27-1.11-1.69-2.25-3.38c-2.94-4.34-6.11-8.71-8.88-12.45v10.33A149.91,149.91,0,0,1,353.16,202c-5.58,7.26-13.85,15.3-21.7,22.28q-6.95,6.28-14.85,12.55h0c-4.25,3.41-7,5.49-7,5.49h0q-5.54,4.15-11.45,8.23-2.47,1.7-5,3.34a14.31,14.31,0,0,0-7.92-4.13,15.27,15.27,0,0,0-17.46,11.62,13.67,13.67,0,0,0,.55,7.61C222,294.59,178,304.76,161,292.3l-.5,2.4c-1.4,7.44,1.37,16.35,1.37,16.35-10.68-15.23-9.48-30.92-7.14-40.4,3.3-14.36,16.14-32.89,36.07-52l-7.47-4.82c-45.56,39-67.31,78.2-49.51,94.68,19.35,17.92,78.86,2.85,139-33.56a14.44,14.44,0,0,0,6.58,2.9,15.27,15.27,0,0,0,17.46-11.62,13.71,13.71,0,0,0-.27-6.8q10.53-7.4,20-15h0q2.53-2.06,4.93-4.09h0a320.23,320.23,0,0,0,34-32.94l.73-.85h0A202.29,202.29,0,0,1,372.71,238a112,112,0,0,1,7.63,26h-.12a69.62,69.62,0,0,1,.72,7.29H381q.06,2.11,0,4.09a25.76,25.76,0,0,1-.57,5.06h0c-1.46,7.66-5.31,13.33-11.74,16.34-10.63,5-26.63,1.88-44.81-7.34h0s-9.47-4.39-28.21-15.07c0,0,5.1,6.72,23.56,18.1,22,11.76,41.42,15.94,54.1,10,9.06-4.23,13.6-13.12,14-25.23h0a2.49,2.49,0,0,1,0-.4q.06-2,0-4.18Z" transform="translate(-2 -77.24)"/>
    </g>
    <g>
      <path d="M109.69,384c3.14,0,3.13,0,5.4-2.07l17.7-17.71c.33-.35.64-.52.27-.93H33.72V401.7H2c-.07.59,1.94,1.84,1.94,1.84l29.77,18.93v40.3c.45,0,1.22-.78,1.22-.78l20.19-20.21c1.16-1.29,1.16-1.67,1.16-2.72v-16.6H86.21c1.88,0,2.27-.18,3.83-1.39l18.25-18.22c.32-.35.59-.64.4-1.08-2.41-.06-52.4-.08-52.4-.08V384Z" transform="translate(-2 -77.24)"/>
      <path d="M462,363.25V408l-41.77-44.76H399.36V439h20.89V394.76c13.8,14.66,28,29.73,41.77,44.29h20v-75.8Z" transform="translate(-2 -77.24)"/>
      <path d="M196.94,417.49V363.25H176v45.08a3,3,0,0,1-.82,2.27l-7.57,7.48a3.69,3.69,0,0,1-1.36.09l-29.44-.07a.44.44,0,0,1-.21-.06,2.48,2.48,0,0,1-.39-.32V371c0-.62-.09-.79-.68-.93l-20.7,20.79V439.1h60.63c1.27,0,2.25,0,3.14-1.13l17.32-17.54A3.66,3.66,0,0,0,196.94,417.49Z" transform="translate(-2 -77.24)"/>
      <path d="M332.32,364.57,311.39,385.8a4.21,4.21,0,0,0-1,2.89v50.37H371c1.27,0,2.24,0,3.13-1.13l17.32-17.35a4.21,4.21,0,0,0,1-2.89V363.25h-57A3.54,3.54,0,0,0,332.32,364.57Zm38.34,19.86.36.34V410l-8.12,8.2H332.4l-.6-.48v-23.4l9.9-9.89Z" transform="translate(-2 -77.24)"/>
      <path d="M278.16,387.68a.82.82,0,0,0-.27.61V439h25.27v-75.8a1.42,1.42,0,0,0-.79.18Z" transform="translate(-2 -77.24)"/>
      <path d="M271.49,363.81s0-.56-.44-.56H202.13v21.42s22,19.25,26.43,23l13.38,11.46-.16.55H205.22l-18.36,18.38a1.69,1.69,0,0,0-.42.93h85V418.7a3.18,3.18,0,0,0-1.28-2.68L234,384.42c-.36-.32-1-.76-.92-1.55h37.61a.68.68,0,0,0,.57-.26.94.94,0,0,0,.18-.7C271.5,376.25,271.49,363.81,271.49,363.81Z" transform="translate(-2 -77.24)"/>
    </g>
    <g>
      <path class="cls-1" d="M70.36,336.28H77c3.88,0,6.46,2.38,6.46,5.93s-2.63,6.12-6.58,6.12H74.17v4.82H70.36Zm6.24,8.91a2.84,2.84,0,0,0,3-3,2.74,2.74,0,0,0-2.7-2.78H74.17v5.76Z" transform="translate(-2 -77.24)"/>
      <path class="cls-1" d="M102.15,336.28H106v6.91h6.79v-6.91h3.81v16.86h-3.81V346.4H106v6.75h-3.81Z" transform="translate(-2 -77.24)"/>
      <path class="cls-1" d="M138.44,336.28h3.81v16.86h-3.81Z" transform="translate(-2 -77.24)"/>
      <path class="cls-1" d="M175.76,350v3.13H164.12V336.28h3.81V350Z" transform="translate(-2 -77.24)"/>
      <path class="cls-1" d="M202.39,336.28H206l7,16.86h-4l-1.28-3.44h-6.94l-1.3,3.44h-4Zm4,10.31-2.19-6h-.07l-2.22,6Z" transform="translate(-2 -77.24)"/>
      <path class="cls-1" d="M246.73,344.71c0,5.11-3.42,8.43-8.82,8.43h-6.34V336.28h6.34C243.31,336.28,246.73,339.61,246.73,344.71Zm-3.85,0a4.9,4.9,0,0,0-5.18-5.2h-2.31v10.41h2.31a4.9,4.9,0,0,0,5.17-5.21Z" transform="translate(-2 -77.24)"/>
      <path class="cls-1" d="M269.92,339.41v3.83H277v3.11h-7.06V350h8.14v3.13h-12V336.28h12v3.13Z" transform="translate(-2 -77.24)"/>
      <path class="cls-1" d="M308.89,350v3.13H297.26V336.28h3.81V350Z" transform="translate(-2 -77.24)"/>
      <path class="cls-1" d="M329.74,336.28h6.6c3.88,0,6.46,2.38,6.46,5.93s-2.63,6.12-6.58,6.12h-2.67v4.82h-3.81Zm6.24,8.91a2.84,2.84,0,0,0,3-3,2.74,2.74,0,0,0-2.7-2.78h-2.73v5.76Z" transform="translate(-2 -77.24)"/>
      <path class="cls-1" d="M363.59,336.28h3.81v6.91h6.79v-6.91H378v16.86h-3.81V346.4H367.4v6.75h-3.81Z" transform="translate(-2 -77.24)"/>
      <path class="cls-1" d="M401.93,336.28h3.81v16.86h-3.81Z" transform="translate(-2 -77.24)"/>
      <path class="cls-1" d="M433.4,336.28H437l7,16.86h-4l-1.28-3.44h-6.94l-1.3,3.44h-4Zm4,10.31-2.19-6h-.07l-2.22,6Z" transform="translate(-2 -77.24)"/>
    </g>
  </g>
</svg>
