<svg id="Layer_1" data-name="Layer 1" xmlns="http://www.w3.org/2000/svg" width="414.7" height="480" viewBox="0 0 414.7 480">
  <defs>
    <style>
      .cls-1 {
        fill: #fff;
      }
    </style>
  </defs>
  <title>Team_Logos_Text_Houston</title>
  <g>
    <g id="HOUSTON">
      <path class="cls-1" d="M138.51,394.5h-7V384.1h-4.45v25.11h4.45v-10.4h7v10.4H143v-25.1h-4.45Zm40.12-10.4h-4.45a5.7,5.7,0,0,0-5.72,5.68s0,0,0,0V403.5a5.68,5.68,0,0,0,5.64,5.72h4.53a5.7,5.7,0,0,0,5.72-5.68s0,0,0,0V389.83a5.7,5.7,0,0,0-5.68-5.72h0Zm1.27,18.57a2,2,0,0,1-2.23,2.23h-2.54a2,2,0,0,1-2.23-2.23v-12a2,2,0,0,1,2.23-2.23h2.54a2,2,0,0,1,2.23,2.23Zm41.39,0a2,2,0,0,1-2.23,2.23h-2.54a2,2,0,0,1-2.23-2.23V384.11h-4.45V403.5a5.68,5.68,0,0,0,5.64,5.72H220a5.7,5.7,0,0,0,5.72-5.68s0,0,0,0V384.11H221.3Zm33.48-14.24h2.54a2,2,0,0,1,2.23,2l4.45-1.11a5.75,5.75,0,0,0-5.72-5.21h-4.45a5.7,5.7,0,0,0-5.72,5.68s0,0,0,0v1.88a6.05,6.05,0,0,0,4.23,5.75l5.79,2.32a1.83,1.83,0,0,1,1.43,2v.86a2,2,0,0,1-2.23,2.23h-2.54a2,2,0,0,1-2.23-2.07l-4.45,1.11a5.7,5.7,0,0,0,5.72,5.28h4.45a5.7,5.7,0,0,0,5.73-5.67V401c0-2.64-1.72-4.26-4.16-5.25l-6-2.38c-1.08-.45-1.3-1-1.3-2.45v-.32a2,2,0,0,1,2.24-2.22Zm31.57,0h5.72v20.79h4.45V388.43h5.72v-4.32H286.35Zm51.56-4.32h-4.45a5.7,5.7,0,0,0-5.72,5.68s0,0,0,0V403.5a5.68,5.68,0,0,0,5.64,5.72h4.53a5.7,5.7,0,0,0,5.72-5.68s0,0,0,0V389.83a5.7,5.7,0,0,0-5.68-5.72h0Zm1.27,18.57A2,2,0,0,1,337,404.9h-2.54a2,2,0,0,1-2.23-2.23v-12a2,2,0,0,1,2.23-2.23H337a2,2,0,0,1,2.23,2.23Zm38.25-18.57V398.8l-7.25-14.69H366v25.11h4.45V394.6l7.28,14.62h4.16V384.11Z" transform="translate(-42.65 -10)"/>
    </g>
    <g>
      <polygon points="160.25 427.41 177.65 427.41 177.65 415.68 128.91 415.68 128.91 427.41 146.32 427.41 146.32 442.95 140.13 447.97 146.32 452.99 146.32 479.98 160.25 479.98 160.25 452.99 166.44 447.97 160.25 442.95 160.25 427.41"/>
      <polygon points="197 463.6 197 453 203.19 447.99 197 442.97 197 415.7 183.07 415.7 183.07 442.97 176.88 447.99 183.07 453 183.07 470.82 194.31 480 223.59 479.98 223.59 468.25 202.75 468.25 197 463.6"/>
      <polygon points="355.34 415.7 341.41 427.55 341.41 463.6 335.66 468.25 331.92 468.25 331.92 427.4 317.99 427.4 317.99 468.25 314.25 468.25 308.5 463.6 308.5 427.55 294.57 415.7 294.57 442.97 288.38 447.99 294.57 453 294.57 470.95 305.61 480 344.12 480 355.34 470.95 355.34 453 361.53 447.99 355.34 442.97 355.34 415.7"/>
      <path d="M322.27,435.15l-11.69-9.47H283l-11.69,9.47V453l-6.19,5,6.19,5v27l13.93-11.33V463l.23-.18h22.92v15.85L322.27,490V463l6.19-5-6.19-5ZM308.34,453H285.19V442l5.51-4.16h12.13l5.51,4.16Z" transform="translate(-42.65 -10)"/>
      <polygon points="122.48 415.68 108.56 427.01 108.56 443.28 102.76 447.97 108.56 452.67 108.56 463.67 103.05 467.83 90.92 467.83 85.41 463.67 85.41 452.8 91.37 447.97 85.41 443.14 85.41 427.01 71.48 415.68 71.48 442.67 65.29 447.69 71.48 452.71 71.48 470.53 83.17 480 110.8 480 122.48 470.53 122.48 452.71 128.68 447.69 122.48 442.67 122.48 415.68"/>
      <path d="M100.06,452.67V435.15l-11.69-9.47H60.75l-11.69,9.47v17.52l-6.41,5.17L49.06,463v17.52L60.75,490H88.37l11.69-9.47V463l6.4-5.17Zm-13.93.6L80.34,458l5.79,4.69v11l-5.51,4.16H68.49L63,473.67V462.8L69,458l-6-4.83V442l5.51-4.16H80.63L86.14,442Z" transform="translate(-42.65 -10)"/>
      <polygon points="398.51 447.5 398.51 440.37 389.99 440.37 378.67 430.89 382.71 427.85 394.84 427.85 400.35 432.01 400.35 437.94 414.28 437.94 414.28 425.15 402.59 415.68 374.96 415.68 363.27 425.15 363.27 434.39 379.23 447.73 379.23 454.88 387.79 454.88 399.28 464.48 394.84 467.83 383.05 467.83 377.54 463.67 377.54 457.33 363.61 457.33 363.61 470.53 375.3 480 402.59 480 414.7 470.3 414.7 461.05 398.51 447.5"/>
    </g>
    <polygon class="cls-1" points="211.12 0 225.41 43.97 271.65 43.97 234.24 71.15 248.53 115.12 211.12 87.94 173.72 115.12 188.01 71.15 150.6 43.97 196.84 43.97 211.12 0"/>
    <path d="M357.72,118.85l-2.31.61c-38.1,4.5-55.64,17.93-55.64,17.93-6.61,6.44-10.88,8.21-10.88,8.21a45.88,45.88,0,0,1-9.8,1.9c-.61-.14-2.23,1.37-2.23,1.37A29.31,29.31,0,0,0,264,163.53a33.51,33.51,0,0,0-4.58-1.74,22.49,22.49,0,0,0-11.39-.06,34.76,34.76,0,0,0-4.86,1.8,29.31,29.31,0,0,0-12.84-14.67s-1.62-1.5-2.23-1.37a45.88,45.88,0,0,1-9.8-1.9s-4.27-1.76-10.88-8.21c0,0-17.53-13.43-55.64-17.93l-2.31-.61s-.44.4-.18,1.51L157,158.29l4.38-3.17s.36-.45,1.7-.49c0,0,22-1.51,28.53,6.21,0,0,2.39,3.32,2.74,6.15,0,0,.61,1.61-3.49,4.4,0,0-8.06,3.66-9.67,6.93a20.93,20.93,0,0,0-.35,12.46s.7,2.35,1.35,4.27c0,0,2.16,6.41,12.19,6.93,0,0,6.07.31,7.73,2.79a16.79,16.79,0,0,1,2.66,5.1l2.83,12.55a11.61,11.61,0,0,0,2.88,5.93s4.33,4.73,6.45,6.51c0,0,.26.19.22.85v22.46a4.23,4.23,0,0,0,3,4.16,1.64,1.64,0,0,1,1.15.69,19.72,19.72,0,0,1,3.36,7.16l1.95,68.66s-.59,1.37,3.87,4l.62.12,7.22,1,1.09.6h1.11v6.86s-.11,1.91,3.21,2.46h5.62s2.71-.14,2.57-2.52v-1.27h3.34v1.27c-.14,2.38,2.57,2.52,2.57,2.52h5.62c3.32-.55,3.21-2.46,3.21-2.46V344.6h1.11l1.09-.6,7.22-1,.62-.12c4.47-2.62,3.87-4,3.87-4l2-68.66a19.72,19.72,0,0,1,3.36-7.16,1.64,1.64,0,0,1,1.15-.69,4.23,4.23,0,0,0,3-4.16v-22.5c0-.67.22-.85.22-.85,2.12-1.78,6.45-6.51,6.45-6.51a11.61,11.61,0,0,0,2.88-5.93l2.83-12.55a16.79,16.79,0,0,1,2.66-5.1c1.66-2.48,7.73-2.79,7.73-2.79,10-.52,12.19-6.93,12.19-6.93.65-1.92,1.35-4.27,1.35-4.27a20.93,20.93,0,0,0-.35-12.46c-1.61-3.27-9.67-6.93-9.67-6.93-4.1-2.79-3.49-4.4-3.49-4.4.35-2.83,2.74-6.15,2.74-6.15,6.53-7.71,28.53-6.21,28.53-6.21,1.34,0,1.7.49,1.7.49l4.38,3.17,7.73-37.94C358.16,119.25,357.72,118.85,357.72,118.85Zm-157.1,77.27a11.08,11.08,0,0,1-7.67,1.85,8.57,8.57,0,0,1-6.77-6,17.83,17.83,0,0,1-.95-7.81c.68-4.06,3.77-4.72,7.72-5.23,6.35-.83,7.72,1.82,7.72,1.82,2.3,3,2.3,10.49,2.3,10.49a6.88,6.88,0,0,1-2.36,4.87Zm57,130a7.19,7.19,0,0,1-2.16,5.59V343h-3.67V331.73a7.19,7.19,0,0,1-2.16-5.59L249.34,257a6.69,6.69,0,0,1,2.21-4.51h4.12a6.69,6.69,0,0,1,2.21,4.51Zm1.81-154-2.7,5.47a22.58,22.58,0,0,0-.9,2.24v57H251.4v-57a22.58,22.58,0,0,0-.9-2.24l-2.7-5.47a3,3,0,0,1,.33-3.11c6.25-3.66,10.93,0,10.93,0a3,3,0,0,1,.36,3.1Zm54.86,6.82c3.94.51,7,1.17,7.72,5.23a17.83,17.83,0,0,1-1,7.83,8.57,8.57,0,0,1-6.77,6,11.08,11.08,0,0,1-7.67-1.85,6.88,6.88,0,0,1-2.35-4.87s0-7.5,2.3-10.49c.05,0,1.58-2.67,7.76-1.87Z" transform="translate(-42.65 -10)"/>
    <path class="cls-1" d="M144,117.92a13.44,13.44,0,0,1-3.32-.91,30.46,30.46,0,0,1-13.26-24.35S125,75.44,135.7,60.9V59.2s-26.78,21-26.78,48.31c0,0,.66,21.1,7.19,30.39,0,0,9.61,14,36.58,19.59Z" transform="translate(-42.65 -10)"/>
    <path class="cls-1" d="M371.52,59.2v1.7c10.66,14.54,8.25,31.74,8.25,31.74A30.46,30.46,0,0,1,366.51,117a13.31,13.31,0,0,1-3.18.89l-8.65,39.56c26.86-5.56,36.43-19.56,36.43-19.56,6.53-9.3,7.19-30.39,7.19-30.39C398.3,80.16,371.52,59.2,371.52,59.2Z" transform="translate(-42.65 -10)"/>
  </g>
</svg>
